<?xml version="1.0" encoding="UTF-8" standalone="no"?>
<!DOCTYPE svg PUBLIC "-//W3C//DTD SVG 1.1//EN" "http://www.w3.org/Graphics/SVG/1.1/DTD/svg11.dtd">
<svg version="1.1" xmlns="http://www.w3.org/2000/svg" xmlns:xlink="http://www.w3.org/1999/xlink" preserveAspectRatio="xMidYMid meet" viewBox="-0.8279294958011187 -0.9536899241497678 33.56347313804585 30.814993994743144" width="30" height="27.21"><defs><path d="M14.95 2.64C14.3 1.97 13.54 1.41 12.71 0.99C11.49 0.36 10.17 0.05 8.79 0.05C4.04 0.05 0.17 3.91 0.17 8.66C0.17 12.03 1.95 15.61 5.46 19.29C8.38 22.37 11.97 24.93 14.46 26.54C14.49 26.56 14.66 26.67 14.95 26.86C15.25 26.67 15.42 26.56 15.45 26.54C17.94 24.93 21.52 22.37 24.45 19.29C27.96 15.61 29.74 12.03 29.74 8.66C29.74 3.91 25.87 0.05 21.12 0.05C19.74 0.05 18.42 0.36 17.2 0.99C16.37 1.41 15.61 1.97 14.95 2.64ZM6.78 18.03C3.61 14.7 2 11.55 2 8.66C2 4.92 5.05 1.88 8.79 1.88C10.95 1.88 12.93 2.87 14.22 4.59C14.27 4.66 14.51 4.98 14.95 5.56C15.39 4.98 15.64 4.66 15.69 4.59C16.98 2.87 18.96 1.88 21.12 1.88C24.86 1.88 27.91 4.92 27.91 8.66C27.91 11.55 26.3 14.7 23.13 18.03C20.51 20.78 17.32 23.12 14.95 24.68C12.58 23.12 9.4 20.78 6.78 18.03Z" id="aaZ2jQoep"></path><path d="M14.95 2.64C14.3 1.97 13.54 1.41 12.71 0.99C11.49 0.36 10.17 0.05 8.79 0.05C4.04 0.05 0.17 3.91 0.17 8.66C0.17 12.03 1.95 15.61 5.46 19.29C8.38 22.37 11.97 24.93 14.46 26.54C14.49 26.56 14.66 26.67 14.95 26.86C15.25 26.67 15.42 26.56 15.45 26.54C17.94 24.93 21.52 22.37 24.45 19.29C27.96 15.61 29.74 12.03 29.74 8.66C29.74 3.91 25.87 0.05 21.12 0.05C19.74 0.05 18.42 0.36 17.2 0.99C16.37 1.41 15.61 1.97 14.95 2.64ZM6.78 18.03C3.61 14.7 2 11.55 2 8.66C2 4.92 5.05 1.88 8.79 1.88C10.95 1.88 12.93 2.87 14.22 4.59C14.27 4.66 14.51 4.98 14.95 5.56C15.39 4.98 15.64 4.66 15.69 4.59C16.98 2.87 18.96 1.88 21.12 1.88C24.86 1.88 27.91 4.92 27.91 8.66C27.91 11.55 26.3 14.7 23.13 18.03C20.51 20.78 17.32 23.12 14.95 24.68C12.58 23.12 9.4 20.78 6.78 18.03Z" id="f17XsHKFg0"></path></defs><g><g><use xlink:href="#aaZ2jQoep" opacity="1" fill="#2287bf" fill-opacity="1"></use><g><use xlink:href="#aaZ2jQoep" opacity="1" fill-opacity="0" stroke="#000000" stroke-width="1" stroke-opacity="0"></use></g></g><g><use xlink:href="#f17XsHKFg0" opacity="1" fill="#000000" fill-opacity="0"></use><g><use xlink:href="#f17XsHKFg0" opacity="1" fill-opacity="0" stroke="#000000" stroke-width="1" stroke-opacity="0"></use></g></g></g></svg>