<?xml version="1.0" encoding="UTF-8" standalone="no"?>
<!DOCTYPE svg PUBLIC "-//W3C//DTD SVG 1.1//EN" "http://www.w3.org/Graphics/SVG/1.1/DTD/svg11.dtd">
<svg version="1.1" xmlns="http://www.w3.org/2000/svg" xmlns:xlink="http://www.w3.org/1999/xlink" preserveAspectRatio="xMidYMid meet" viewBox="-0.8279294958011221 -0.9536899241497707 33.99999999999999 31.209999999999997" width="30" height="27.21"><defs><path d="M15.17 2.68C14.51 2 13.73 1.43 12.89 1C11.65 0.37 10.32 0.05 8.92 0.05C4.1 0.05 0.17 3.97 0.17 8.79C0.17 12.21 1.98 15.83 5.53 19.57C8.5 22.7 12.14 25.3 14.67 26.93C14.7 26.95 14.87 27.06 15.17 27.26C15.47 27.06 15.64 26.95 15.68 26.93C18.2 25.3 21.84 22.7 24.81 19.57C28.37 15.83 30.17 12.21 30.17 8.79C30.17 3.97 26.25 0.05 21.43 0.05C20.03 0.05 18.69 0.37 17.45 1C16.61 1.43 15.84 2 15.17 2.68ZM6.88 18.29C3.66 14.91 2.03 11.71 2.03 8.79C2.03 4.99 5.12 1.9 8.92 1.9C11.11 1.9 13.11 2.91 14.43 4.66C14.48 4.72 14.73 5.05 15.17 5.65C15.62 5.05 15.86 4.72 15.91 4.66C17.23 2.91 19.24 1.9 21.43 1.9C25.23 1.9 28.32 4.99 28.32 8.79C28.32 11.71 26.68 14.91 23.47 18.29C20.81 21.08 17.58 23.46 15.17 25.04C12.77 23.46 9.53 21.08 6.88 18.29Z" id="a2CbmzO7fy"></path><path d="M15.17 2.68C14.51 2 13.73 1.43 12.89 1C11.65 0.37 10.32 0.05 8.92 0.05C4.1 0.05 0.17 3.97 0.17 8.79C0.17 12.21 1.98 15.83 5.53 19.57C8.5 22.7 12.14 25.3 14.67 26.93C14.7 26.95 14.87 27.06 15.17 27.26C15.47 27.06 15.64 26.95 15.68 26.93C18.2 25.3 21.84 22.7 24.81 19.57C28.37 15.83 30.17 12.21 30.17 8.79C30.17 3.97 26.25 0.05 21.43 0.05C20.03 0.05 18.69 0.37 17.45 1C16.61 1.43 15.84 2 15.17 2.68ZM6.88 18.29C3.66 14.91 2.03 11.71 2.03 8.79C2.03 4.99 5.12 1.9 8.92 1.9C11.11 1.9 13.11 2.91 14.43 4.66C14.48 4.72 14.73 5.05 15.17 5.65C15.62 5.05 15.86 4.72 15.91 4.66C17.23 2.91 19.24 1.9 21.43 1.9C25.23 1.9 28.32 4.99 28.32 8.79C28.32 11.71 26.68 14.91 23.47 18.29C20.81 21.08 17.58 23.46 15.17 25.04C12.77 23.46 9.53 21.08 6.88 18.29Z" id="d44wJh60m"></path><path d="M16.17 3.12L19.96 0.81L25.89 2.13L29.36 8.23L26.55 16.64L15.17 25.87L6.77 19.61L1.17 10.7L2.16 4.61L7.43 1.31L12.87 2.13L16.17 3.12Z" id="ggYhXclJs"></path></defs><g><g><use xlink:href="#a2CbmzO7fy" opacity="1" fill="#2287bf" fill-opacity="1"></use><g><use xlink:href="#a2CbmzO7fy" opacity="1" fill-opacity="0" stroke="#000000" stroke-width="1" stroke-opacity="0"></use></g></g><g><use xlink:href="#d44wJh60m" opacity="1" fill="#000000" fill-opacity="0"></use><g><use xlink:href="#d44wJh60m" opacity="1" fill-opacity="0" stroke="#000000" stroke-width="1" stroke-opacity="0"></use></g></g><g><use xlink:href="#ggYhXclJs" opacity="1" fill="#2287bf" fill-opacity="1"></use><g><use xlink:href="#ggYhXclJs" opacity="1" fill-opacity="0" stroke="#000000" stroke-width="0" stroke-opacity="1"></use></g></g></g></svg>